<svg xmlns="http://www.w3.org/2000/svg" width="42.082" height="27.384" viewBox="0 0 42.082 27.384"><defs><style>.a{fill:#6d777d;}.b{fill:#a3b2bc;}.c{fill:#c2ccd2;}.d{fill:#55b6e8;}.e{fill:#4b8db0;}.f{fill:#006193;}.g{fill:#003049;}.h{fill:#8198a4;}.i{fill:#96b9cc;}.j{fill:#363b3f;}.k{fill:#0091dc;}.l{fill:#aadaf3;}</style></defs><g transform="translate(-18.12 -37)"><path d="M21.946,94.846,25.771,88H18.12Z" transform="translate(0 -30.462)"/><path class="a" d="M31.446,88l3.826,6.846H27.62Z" transform="translate(-5.674 -30.462)"/><path class="b" d="M40.946,94.846,44.771,88H37.12Z" transform="translate(-11.349 -30.462)"/><path class="c" d="M50.446,88l3.826,6.846H46.62Z" transform="translate(-17.023 -30.462)"/><path class="d" d="M69.446,88l3.826,6.846H65.62Z" transform="translate(-28.372 -30.462)"/><path class="e" d="M78.946,94.846,82.771,88H75.12Z" transform="translate(-34.046 -30.462)"/><path class="f" d="M97.946,94.846,101.771,88H94.12Z" transform="translate(-45.395 -30.462)"/><path class="g" d="M107.446,88l3.826,6.846H103.62Z" transform="translate(-51.069 -30.462)"/><path class="h" d="M31.446,54l3.826,6.846H27.62Z" transform="translate(-5.674 -10.154)"/><path class="b" d="M40.946,60.846,44.771,54H37.12Z" transform="translate(-11.349 -10.154)"/><path class="i" d="M78.946,60.846,82.771,54H75.12Z" transform="translate(-34.046 -10.154)"/><path class="d" d="M88.446,54l3.826,6.846H84.62Z" transform="translate(-39.721 -10.154)"/><path class="f" d="M97.946,60.846,101.771,54H94.12Z" transform="translate(-45.395 -10.154)"/><path class="j" d="M21.946,71l3.826,6.846H18.12Z" transform="translate(0 -20.308)"/><path class="a" d="M31.446,77.846,35.271,71H27.62Z" transform="translate(-5.674 -20.308)"/><path class="f" d="M78.946,71l3.826,6.846H75.12Z" transform="translate(-34.046 -20.308)"/><path class="k" d="M88.446,77.846,92.271,71H84.62Z" transform="translate(-39.721 -20.308)"/><path class="e" d="M97.946,71l3.826,6.846H94.12Z" transform="translate(-45.395 -20.308)"/><path class="c" d="M40.946,37l3.826,6.846H37.12Z" transform="translate(-11.349)"/><path class="c" d="M69.446,43.846,73.271,37H65.62Z" transform="translate(-28.372)"/><path class="l" d="M78.946,37l3.826,6.846H75.12Z" transform="translate(-34.046)"/><path class="e" d="M97.946,37l3.826,6.846H94.12Z" transform="translate(-45.395)"/><path class="d" d="M107.446,43.846,111.271,37H103.62Z" transform="translate(-51.069)"/></g></svg>